<svg width="24" height="24" viewBox="0 0 15 15" fill="none" xmlns="http://www.w3.org/2000/svg">
<path fill-rule="evenodd" clip-rule="evenodd" d="M2.90001 0.500006C2.90001 0.279092 2.72092 0.100006 2.50001 0.100006C2.27909 0.100006 2.10001 0.279092 2.10001 0.500006V1.10001H1.50001C1.27909 1.10001 1.10001 1.27909 1.10001 1.50001C1.10001 1.72092 1.27909 1.90001 1.50001 1.90001H2.10001V2.50001C2.10001 2.72092 2.27909 2.90001 2.50001 2.90001C2.72092 2.90001 2.90001 2.72092 2.90001 2.50001V1.90001H3.50001C3.72092 1.90001 3.90001 1.72092 3.90001 1.50001C3.90001 1.27909 3.72092 1.10001 3.50001 1.10001H2.90001V0.500006ZM5.90001 3.50001C5.90001 3.27909 5.72092 3.10001 5.50001 3.10001C5.27909 3.10001 5.10001 3.27909 5.10001 3.50001V4.10001H4.50001C4.27909 4.10001 4.10001 4.27909 4.10001 4.50001C4.10001 4.72092 4.27909 4.90001 4.50001 4.90001H5.10001V5.50001C5.10001 5.72092 5.27909 5.90001 5.50001 5.90001C5.72092 5.90001 5.90001 5.72092 5.90001 5.50001V4.90001H6.50001C6.72092 4.90001 6.90001 4.72092 6.90001 4.50001C6.90001 4.27909 6.72092 4.10001 6.50001 4.10001H5.90001V3.50001ZM1.90001 6.50001C1.90001 6.27909 1.72092 6.10001 1.50001 6.10001C1.27909 6.10001 1.10001 6.27909 1.10001 6.50001V7.10001H0.500006C0.279092 7.10001 0.100006 7.27909 0.100006 7.50001C0.100006 7.72092 0.279092 7.90001 0.500006 7.90001H1.10001V8.50001C1.10001 8.72092 1.27909 8.90001 1.50001 8.90001C1.72092 8.90001 1.90001 8.72092 1.90001 8.50001V7.90001H2.50001C2.72092 7.90001 2.90001 7.72092 2.90001 7.50001C2.90001 7.27909 2.72092 7.10001 2.50001 7.10001H1.90001V6.50001ZM8.54409 0.98187L8.24621 0.941617C8.03278 0.917707 7.90695 1.16553 8.02939 1.34197C8.17016 1.54482 8.29984 1.75595 8.41757 1.97448C8.91881 2.90488 9.20325 3.96935 9.20325 5.10025C9.20325 8.37204 6.8225 11.0879 3.6989 11.6097C3.45739 11.6501 3.20991 11.6772 2.96011 11.6906C2.74566 11.702 2.62732 11.9535 2.77725 12.1072C2.84554 12.1773 2.91538 12.2459 2.9867 12.3129L3.05886 12.3796L3.31886 12.6045L3.50687 12.7532L3.62799 12.8433L3.81494 12.9743L3.99082 13.089C4.11178 13.1652 4.23539 13.2375 4.3616 13.306L4.62499 13.4412L4.88556 13.5607L5.1884 13.6829L5.43172 13.7686C5.56567 13.8128 5.70152 13.8529 5.8386 13.8885C5.94265 13.9156 6.0477 13.9401 6.15408 13.9622C6.27996 13.9884 6.40716 14.0109 6.53548 14.0298L6.85244 14.0686L7.11937 14.0893C7.2464 14.0966 7.37439 14.1002 7.50325 14.1002C11.1483 14.1002 14.1032 11.1454 14.1032 7.50026C14.1032 7.25047 14.0894 7.00392 14.0623 6.76134L14.0255 6.4841C13.991 6.26086 13.9453 6.04132 13.8891 5.82645C13.8213 5.56712 13.7382 5.31401 13.6409 5.06885L13.528 4.80135L13.4507 4.63545L13.3766 4.48669C13.2178 4.17776 13.0353 3.88298 12.8312 3.60426L12.6782 3.40356L12.4793 3.16435L12.3158 2.98364L12.1962 2.85954L12.0355 2.70249L11.8134 2.50187L11.4926 2.24194L11.2484 2.06502L10.9562 1.87449L10.6346 1.68898L10.3073 1.52381L10.1938 1.47179L9.95491 1.37063L9.67794 1.26693L9.42569 1.18463L9.10078 1.09492L8.83602 1.03489L8.54409 0.98187ZM10.4033 5.30026C10.4033 4.27591 10.2002 3.29832 9.83247 2.40607C11.7624 3.28998 13.1032 5.23865 13.1032 7.50026C13.1032 10.5931 10.596 13.1002 7.50325 13.1002C6.63649 13.1002 5.816 12.9036 5.08358 12.5522C6.54193 12.0941 7.81084 11.2082 8.74325 10.0416C8.87966 10.2284 9.10032 10.3497 9.34931 10.3497C9.76352 10.3497 10.0993 10.014 10.0993 9.59974C10.0993 9.24259 9.84968 8.94376 9.51538 8.86819C9.57744 8.75168 9.63656 8.63337 9.69263 8.51335C9.88361 8.63166 10.1088 8.69996 10.35 8.69996C11.0403 8.69996 11.6 8.14031 11.6 7.44996C11.6 6.7598 11.0407 6.20027 10.3506 6.19996C10.3854 5.9049 10.4033 5.60467 10.4033 5.30026Z" fill="white"/>
</svg>
